<?xml version="1.0" encoding="UTF-8" standalone="no"?>
<!-- Created with Inkscape (http://www.inkscape.org/) -->

<svg
   width="159.76233mm"
   height="158.04713mm"
   viewBox="0 0 159.76233 158.04713"
   version="1.1"
   id="svg5"
   inkscape:version="1.1.1 (3bf5ae0d25, 2021-09-20)"
   sodipodi:docname="marvelous-logo.svg"
   xmlns:inkscape="http://www.inkscape.org/namespaces/inkscape"
   xmlns:sodipodi="http://sodipodi.sourceforge.net/DTD/sodipodi-0.dtd"
   xmlns="http://www.w3.org/2000/svg"
   xmlns:svg="http://www.w3.org/2000/svg">
  <sodipodi:namedview
     id="namedview7"
     pagecolor="#ffffff"
     bordercolor="#666666"
     borderopacity="1.0"
     inkscape:pageshadow="2"
     inkscape:pageopacity="0.0"
     inkscape:pagecheckerboard="0"
     inkscape:document-units="mm"
     showgrid="false"
     fit-margin-top="0"
     fit-margin-left="0"
     fit-margin-right="0"
     fit-margin-bottom="0"
     inkscape:zoom="0.46324355"
     inkscape:cx="583.92611"
     inkscape:cy="270.91581"
     inkscape:window-width="1366"
     inkscape:window-height="705"
     inkscape:window-x="-8"
     inkscape:window-y="-8"
     inkscape:window-maximized="1"
     inkscape:current-layer="layer1" />
  <defs
     id="defs2" />
  <g
     inkscape:label="Camada 1"
     inkscape:groupmode="layer"
     id="layer1"
     transform="translate(-21.084614,-31.089693)">
    <path
       style="fill:#96f550;stroke-width:0.264583;fill-opacity:1"
       d="m 92.216071,188.9814 c -18.503391,-1.90568 -34.93578,-9.66996 -47.973359,-22.66733 -12.93037,-12.8905 -20.58784,-28.65898 -22.82532,-47.0026 -0.54541,-4.47147 -0.39454,-15.85117 0.26382,-19.899972 1.51558,-9.320429 3.63493,-16.067378 7.46234,-23.756281 3.84816,-7.730598 8.03129,-13.668544 13.86002,-19.67429 1.96453,-2.02419 4.7625,-4.681554 6.21771,-5.905253 5.598704,-4.708003 14.04709,-9.732087 20.76979,-12.351372 5.868009,-2.286282 14.684367,-4.781295 20.902083,-5.915248 3.601429,-0.656809 4.347049,-0.70079 12.170825,-0.717901 6.62505,-0.01449 8.94479,0.07514 11.31061,0.437028 14.08492,2.154486 26.86252,7.741659 37.90189,16.573105 3.14621,2.516948 9.10387,8.446675 11.46813,11.414348 7.91337,9.933045 13.06913,20.959127 15.64349,33.455086 1.035,5.023921 1.46384,9.53892 1.4588,15.35892 -0.007,7.70134 -0.69103,13.18419 -2.51848,20.17725 -0.91874,3.51574 -2.76272,8.8799 -3.47855,10.11916 -0.23095,0.39983 -0.3088,0.45216 -0.19682,0.1323 0.10188,-0.29105 0.71149,-2.01494 1.35468,-3.83087 4.21737,-11.90697 5.43111,-25.78868 3.35489,-38.37018 -2.05278,-12.439443 -7.13613,-24.124602 -15.01787,-34.521785 -2.06335,-2.721854 -8.57755,-9.400801 -11.80368,-12.102191 -4.46173,-3.736012 -10.01825,-7.433022 -14.8567,-9.884851 -0.73486,-0.372378 -3.19936,-1.42405 -5.47668,-2.337048 -9.52779,-3.819777 -17.03379,-5.360683 -27.42391,-5.629849 -3.20146,-0.08294 -5.745135,-0.06968 -5.652615,0.02946 0.0925,0.09914 2.057035,0.296656 4.365615,0.438919 13.91968,0.857787 27.45021,5.39924 38.06408,12.77601 4.36705,3.035156 5.24509,3.927327 1.32291,1.344202 -18.75449,-12.351604 -42.87718,-15.597899 -64.690615,-8.705695 -13.19713,4.169783 -26.089797,12.699737 -34.373253,22.741787 -11.43888,13.867373 -17.82817,32.862692 -17.13165,50.932291 0.32282,8.3748 1.7417,15.70746 4.64846,24.02282 5.37261,15.36942 16.97261,29.66364 31.353694,38.6359 5.566201,3.47271 11.749611,6.27078 18.451004,8.34931 6.883577,2.13502 12.40628,3.02964 20.07049,3.25118 13.21467,0.38199 23.66177,-1.97659 34.925,-7.8848 14.03269,-7.36095 26.50821,-20.43584 33.29666,-34.89632 6.48346,-13.81085 8.77816,-29.50149 6.51892,-44.574965 -0.21811,-1.455208 -0.45438,-3.062552 -0.52505,-3.571875 l -0.12848,-0.926041 0.26824,0.79375 c 0.39858,1.179438 1.24304,6.227801 1.57115,9.392711 0.41499,4.00285 0.35194,12.50256 -0.12253,16.51955 -2.24592,19.01448 -11.27871,36.61058 -24.87566,48.45847 -12.51167,10.90221 -27.07357,17.4649 -43.37663,19.54879 -2.89893,0.37055 -13.705426,0.51707 -16.547449,0.22437 z m 16.536459,-2.46286 c 0.91088,-0.15986 0.12802,-0.19074 -2.51355,-0.0992 -7.173665,0.2487 -14.979885,-0.60429 -22.489575,-2.45748 -11.385264,-2.80952 -22.668269,-8.84799 -31.94651,-17.09717 -13.848403,-12.31246 -22.600573,-28.89624 -25.375693,-48.08239 -0.59706,-4.12783 -0.66961,-14.34189 -0.13156,-18.52083 0.68973,-5.356995 2.27904,-12.561917 3.88474,-17.610953 0.50465,-1.586852 -0.50081,0.656204 -1.32091,2.946779 -4.1897,11.702031 -5.43013,25.281714 -3.43005,37.550634 1.17335,7.19763 3.81015,15.50031 6.82696,21.49663 6.77476,13.46568 16.85197,24.28127 29.87416,32.06307 8.151691,4.87129 19.638195,8.71092 29.291779,9.79147 1.382448,0.15474 2.87073,0.33197 3.307293,0.39384 1.27833,0.18119 12.575836,-0.12045 14.022916,-0.3744 z m 2.71197,-0.44988 c -0.25466,-0.0666 -0.67138,-0.0666 -0.92604,0 -0.25466,0.0666 -0.0463,0.121 0.46302,0.121 0.50933,0 0.71769,-0.0545 0.46302,-0.121 z M 53.784806,149.64151 c -1.541385,-0.57472 -2.731505,-1.62276 -3.41196,-3.00463 -0.533704,-1.08385 -0.622394,-1.65984 -0.622394,-4.04208 0,-2.61916 0.047,-2.86139 0.821813,-4.23333 1.202674,-2.1296 2.731796,-3.0137 5.424143,-3.13609 1.755299,-0.0798 2.265699,0.003 3.508145,0.57227 2.59602,1.1885 3.792566,3.68878 3.550994,7.42011 -0.191474,2.95754 -1.401956,5.09334 -3.510018,6.19315 -1.090398,0.56888 -4.488632,0.70491 -5.760723,0.2306 z m 3.739928,-2.98025 c 0.910114,-0.63747 1.353839,-1.96572 1.353839,-4.0526 0,-2.03767 -0.567373,-3.84283 -1.33734,-4.25491 -0.828772,-0.44354 -1.976892,-0.29221 -2.567664,0.33845 -0.835377,0.89178 -1.12208,1.88893 -1.12208,3.9026 0,0.9997 0.126995,2.15281 0.282208,2.56246 0.672512,1.77495 2.100175,2.40815 3.391037,1.504 z m 16.831963,2.90296 c -1.280816,-0.67403 -2.172335,-1.65112 -2.766279,-3.03178 -0.445514,-1.03563 -0.682345,-1.29181 -1.194211,-1.29181 -0.87182,0 -1.045329,0.36377 -1.198885,2.51354 l -0.132291,1.85208 -1.580113,0.0811 c -1.261364,0.0647 -1.64832,-0.0122 -1.918229,-0.3813 -0.42926,-0.58705 -0.486857,-12.55354 -0.06422,-13.34323 0.247912,-0.46323 0.580451,-0.51164 3.505729,-0.5103 3.591126,0.002 4.93504,0.26762 6.208678,1.22881 1.103032,0.83243 1.653368,1.90998 1.653368,3.23727 0,1.45492 -0.39632,2.37474 -1.52273,3.53412 -0.849376,0.87423 -0.932252,1.07497 -0.707576,1.71382 0.180594,0.51352 0.585931,0.84606 1.395979,1.14529 0.627822,0.23192 1.249151,0.59178 1.380734,0.79971 0.346297,0.5472 0.301175,2.20275 -0.07016,2.57408 -0.442659,0.44266 -2.041306,0.37774 -2.989792,-0.12141 z m -2.332156,-7.80929 c 1.332491,-1.25181 0.371869,-3.39346 -1.522117,-3.39346 -0.653116,0 -1.037896,0.14071 -1.144502,0.41852 -0.254485,0.66317 -0.186828,2.47768 0.113292,3.03846 0.379364,0.70885 1.767953,0.6743 2.553327,-0.0635 z m 11.193986,8.01653 c -3.287102,-1.07692 -4.721289,-3.67305 -4.42413,-8.00847 0.343546,-5.01224 3.755236,-7.41238 8.991245,-6.32539 1.987598,0.41262 2.315737,0.83237 1.634043,2.09022 -0.410083,0.75668 -0.66543,0.95184 -1.178658,0.90083 -0.360341,-0.0358 -1.369539,-0.13763 -2.242664,-0.22628 -1.438206,-0.146 -1.641099,-0.10255 -2.157452,0.46199 -1.543836,1.68794 -1.514377,6.23579 0.05053,7.80069 0.829042,0.82904 2.868112,0.90091 3.288241,0.11589 0.482066,-0.90075 0.317289,-1.79372 -0.431665,-2.33929 -0.791742,-0.57675 -0.988912,-2.04321 -0.330729,-2.45982 0.516385,-0.32686 3.337991,-0.30655 3.964096,0.0285 0.457893,0.24506 0.511773,0.57734 0.511773,3.15611 0,3.21469 -0.04708,3.31862 -1.945833,4.29545 -1.18972,0.61206 -4.513509,0.90769 -5.728795,0.50954 z m 50.506713,-0.13336 c -1.63945,-0.58587 -2.64869,-1.49757 -3.37698,-3.05061 -0.59895,-1.27721 -0.69249,-1.82231 -0.68515,-3.99269 0.01,-2.81267 0.49732,-4.28853 1.87085,-5.66026 1.58053,-1.57846 4.27359,-2.16731 6.75711,-1.47748 1.46297,0.40636 1.69844,0.83732 1.11264,2.03641 -0.40668,0.83243 -0.59969,0.98128 -1.15014,0.88701 -0.36381,-0.0623 -1.251,-0.12184 -1.97154,-0.1323 -1.18934,-0.0173 -1.36323,0.0596 -1.88681,0.83339 -1.20083,1.77482 -1.00941,5.62909 0.36044,7.25704 0.68534,0.81449 0.6965,0.81721 2.63082,0.64193 l 1.94255,-0.17603 0.38568,0.92306 c 0.21213,0.50768 0.31924,1.09621 0.23803,1.30785 -0.3348,0.87246 -4.3777,1.26373 -6.2275,0.60268 z m 9.32277,0.0998 c -1.1024,-0.26025 -1.38372,-0.67748 -1.05506,-1.56475 0.40226,-1.08598 0.88859,-1.31904 2.15686,-1.0336 1.40137,0.31541 2.62369,0.0961 3.23618,-0.58073 0.74333,-0.82137 0.23255,-1.4792 -2.12256,-2.73367 -2.56745,-1.36757 -3.3057,-2.30885 -3.3057,-4.21479 0,-2.65706 2.1455,-4.41589 5.39326,-4.42128 3.0711,-0.005 4.40357,0.85912 3.48534,2.26053 -0.4028,0.61474 -0.52148,0.64088 -2.20476,0.48564 -1.57619,-0.14537 -1.83456,-0.10242 -2.26591,0.3767 -0.76511,0.84983 -0.34206,1.54591 1.49884,2.46614 3.31471,1.65697 4.30747,2.85927 4.07367,4.9335 -0.20983,1.86157 -1.71134,3.42481 -3.8639,4.02273 -1.10826,0.30785 -3.72954,0.30971 -5.02626,0.004 z m -50.213187,-0.41211 c -0.160549,-0.41839 3.298451,-11.62195 4.059061,-13.14713 0.35535,-0.71254 0.41191,-0.72761 2.731221,-0.72761 2.168435,0 2.400035,0.0503 2.743765,0.59532 0.59685,0.94645 4.45301,12.90595 4.2945,13.319 -0.10317,0.26888 -0.62995,0.37317 -1.88479,0.37317 -1.72333,0 -1.74546,-0.009 -2.10969,-0.88095 -0.57538,-1.37709 -0.91819,-1.53192 -3.201025,-1.44573 l -2.058791,0.0777 -0.54709,1.05833 c -0.54088,1.04634 -0.56585,1.05923 -2.20305,1.13719 -1.344794,0.064 -1.687559,-0.003 -1.824111,-0.35932 z m 8.053667,-5.67265 c 0.0944,-0.84996 -0.76936,-3.50033 -1.184945,-3.63593 -0.3843,-0.12539 -1.53035,3.44913 -1.29908,4.05182 0.11488,0.29938 0.45782,0.38675 1.28367,0.32704 0.980115,-0.0709 1.136455,-0.16762 1.200355,-0.74293 z m 8.12074,5.76342 c -0.0736,-0.19172 -0.10189,-3.38263 -0.0629,-7.09089 l 0.0708,-6.74232 1.8769,-0.0769 c 1.29361,-0.053 1.9629,0.0292 2.15361,0.26459 0.15219,0.18781 0.77708,1.53211 1.38864,2.98732 1.28557,3.05898 1.7797,3.91539 2.1331,3.69698 0.13912,-0.086 0.25296,-1.55425 0.25296,-3.26281 0,-2.06336 0.10661,-3.21308 0.3175,-3.42397 0.17462,-0.17462 0.88481,-0.3175 1.57819,-0.3175 0.97562,0 1.32262,0.11573 1.53458,0.51178 0.16616,0.31046 0.27389,2.91914 0.27389,6.63197 0,3.71283 -0.10773,6.3215 -0.27389,6.63197 -0.23069,0.43104 -0.56564,0.51177 -2.12335,0.51177 h -1.84947 l -1.64696,-3.35866 c -0.90584,-1.84726 -1.76603,-3.33628 -1.91155,-3.30892 -0.15055,0.0283 -0.32161,1.44741 -0.39688,3.29251 l -0.13229,3.24278 -1.52456,0.0795 c -1.07653,0.0561 -1.56386,-0.023 -1.65832,-0.26914 z m 14.54698,-0.0133 c -0.0708,-0.18441 -0.0968,-3.36933 -0.0578,-7.07759 l 0.0708,-6.74231 1.6957,-0.0799 c 1.17757,-0.0555 1.76246,0.0254 1.91418,0.26459 0.36486,0.57522 0.28024,13.28181 -0.0909,13.65297 -0.43423,0.43424 -3.36414,0.41949 -3.53194,-0.0178 z m 50.17027,-8.52824 c 0,-0.14552 0.17016,-0.56224 0.37813,-0.92604 0.20796,-0.3638 0.37812,-0.54239 0.37812,-0.39687 0,0.14552 -0.17016,0.56224 -0.37812,0.92604 -0.20797,0.3638 -0.37813,0.54239 -0.37813,0.39687 z M 83.573944,129.23645 c -0.733713,-0.44439 -1.297191,-1.07139 -1.687571,-1.8778 -1.05596,-2.18133 -2.105718,-1.81756 -2.105718,0.72967 v 1.56831 l -1.521354,-0.0794 -1.521354,-0.0794 v -5.68854 -5.68854 l 2.778125,-0.0796 c 3.514783,-0.1007 4.293423,0.0485 5.421418,1.0389 1.584605,1.3913 1.583206,3.69653 -0.0033,5.37868 -0.780447,0.82751 -0.875417,1.05659 -0.628949,1.51712 0.159665,0.29834 0.760449,0.72711 1.335077,0.95283 1.025665,0.40289 1.043336,0.43257 0.965977,1.62207 -0.07659,1.17775 -0.104716,1.21364 -1.004842,1.28221 -0.618442,0.0471 -1.291923,-0.15105 -2.027544,-0.59661 z m -1.294749,-6.27968 c 0.792596,-1.1316 0.337957,-2.26523 -1.081598,-2.69694 -1.081323,-0.32886 -1.828406,1.37569 -1.256342,2.86646 0.253206,0.65985 1.837488,0.54497 2.33794,-0.16952 z m 39.956135,6.44071 c -2.0409,-0.92705 -3.02737,-2.73619 -3.03029,-5.5574 -0.002,-1.88217 0.42591,-3.22623 1.40522,-4.4143 1.03077,-1.2505 2.14188,-1.70181 4.18982,-1.70181 3.36307,0 5.20405,1.77187 5.4499,5.24532 0.21909,3.09542 -0.76041,5.28145 -2.83638,6.3302 -1.4735,0.74439 -3.66397,0.78584 -5.17827,0.098 z m 3.94907,-2.75724 c 0.40838,-0.54936 0.57497,-1.23374 0.64405,-2.64584 0.0811,-1.65846 0.0119,-2.02457 -0.53525,-2.83085 -0.8197,-1.20791 -2.11963,-1.30466 -2.93084,-0.21814 -0.99725,1.33571 -0.9359,4.56202 0.11209,5.89433 0.73317,0.93207 1.93451,0.84363 2.70995,-0.1995 z m 7.96812,2.66832 c -0.68984,-0.39537 -1.26761,-1.02073 -1.65939,-1.7961 -0.5595,-1.10727 -0.5961,-1.47311 -0.52917,-5.29057 l 0.0719,-4.10104 1.48477,-0.0783 1.48477,-0.0783 0.16596,1.0043 c 0.0913,0.55236 0.16728,2.50389 0.16888,4.33673 0.003,2.8901 0.0671,3.39055 0.48676,3.77031 0.59332,0.53694 1.36358,0.56062 2.04527,0.0629 0.46635,-0.34052 0.52132,-0.77969 0.5977,-4.77516 l 0.0841,-4.40016 1.50338,0.0788 1.50339,0.0788 v 4.5454 c 0,4.97911 -0.074,5.24591 -1.81571,6.54628 -1.1326,0.84561 -4.19305,0.89816 -5.59263,0.096 z m 10.53641,0.40204 c -0.9037,-0.17592 -1.19945,-0.69303 -0.87877,-1.53649 0.26266,-0.69085 0.34408,-0.72021 1.64957,-0.59477 1.54233,0.1482 2.72731,-0.16338 2.96365,-0.77927 0.22409,-0.58397 -0.22563,-1.02517 -2.0196,-1.98134 -0.86314,-0.46005 -1.79676,-1.12556 -2.07471,-1.47891 -1.96328,-2.49591 0.28031,-5.65586 3.96858,-5.58948 2.06545,0.0372 2.77214,0.28086 2.87466,0.99123 0.14826,1.02726 -0.39903,1.39306 -1.80514,1.20653 -1.53293,-0.20335 -2.45058,0.20385 -2.33226,1.03492 0.0587,0.41234 0.61167,0.85306 1.93428,1.54164 2.91752,1.51891 3.75014,3.31695 2.44526,5.2805 -0.88009,1.32433 -2.59441,2.09776 -4.55184,2.05361 -0.87867,-0.0198 -1.85683,-0.0865 -2.17368,-0.14817 z m -94.946848,-0.40364 c -0.0744,-0.19387 -0.10294,-2.79005 -0.0635,-5.7693 l 0.0718,-5.41681 h 1.841992 1.841992 l 0.936133,2.76251 c 0.514874,1.51939 1.07679,2.80651 1.248706,2.86027 0.194016,0.0607 0.649153,-0.98713 1.199957,-2.76252 l 0.887381,-2.86026 1.914091,-0.0778 1.914091,-0.0778 -0.07134,5.76638 -0.07134,5.76639 h -1.322916 -1.322917 l -0.07632,-2.46605 c -0.08894,-2.87368 -0.386958,-3.04385 -1.219451,-0.69631 l -0.558485,1.57486 H 55.60284 54.313721 l -0.562965,-1.5875 c -0.309634,-0.87313 -0.68154,-1.55898 -0.826463,-1.52411 -0.144923,0.0349 -0.323027,1.10642 -0.395787,2.38125 l -0.132292,2.31786 -1.259469,0.0808 c -0.865386,0.0555 -1.301793,-0.0295 -1.394733,-0.27172 z m 13.634407,-0.12213 c 0,-0.62156 3.16842,-10.46065 3.498961,-10.86555 0.174054,-0.2132 1.002842,-0.33073 2.332273,-0.33073 h 2.062276 l 1.741787,5.22568 c 0.957982,2.87413 1.741786,5.4935 1.741786,5.82084 0,0.54522 -0.122449,0.59515 -1.459489,0.59515 -1.407483,0 -1.475224,-0.033 -1.901087,-0.92604 -0.441198,-0.9252 -0.443243,-0.92604 -2.253602,-0.92604 -1.790398,0 -1.818515,0.011 -2.358379,0.92604 -0.517205,0.87659 -0.622686,0.92604 -1.975453,0.92604 -1.163079,0 -1.429073,-0.0829 -1.429073,-0.44539 z m 6.596613,-4.03582 c 0.325106,-0.20573 0.309454,-0.46916 -0.11026,-1.85538 -0.269042,-0.88858 -0.618141,-1.57463 -0.77578,-1.52456 -0.157638,0.0501 -0.498385,0.72168 -0.757213,1.49246 -0.359622,1.07094 -0.398778,1.48796 -0.16604,1.76839 0.345713,0.41656 1.245616,0.47579 1.809293,0.11909 z m 20.957388,4.01819 c -0.582919,-1.09777 -3.443512,-10.78872 -3.243635,-10.9886 0.121179,-0.12117 0.862404,-0.18374 1.647166,-0.13904 l 1.426842,0.0813 0.692693,2.64583 c 1.204962,4.60252 1.304448,4.89479 1.666099,4.89479 0.229825,0 0.602134,-0.99781 1.061265,-2.84427 0.388984,-1.56435 0.824984,-3.29076 0.968894,-3.83646 l 0.26165,-0.99219 h 1.5773 c 1.277791,0 1.577311,0.0814 1.577311,0.42876 0,0.44021 -2.320781,8.07457 -3.066801,10.08843 l -0.41655,1.12448 H 93.12954 c -1.590122,0 -1.998885,-0.0861 -2.19905,-0.46302 z m 9.67083,0.29342 c -0.10074,-0.10075 -0.18317,-2.72628 -0.18317,-5.83451 v -5.65134 l 4.0349,0.073 4.03489,0.073 v 1.05833 1.05833 l -2.11666,0.13229 c -2.41354,0.15085 -2.77813,0.30793 -2.77813,1.19693 0,0.79227 0.69494,1.18432 2.09927,1.18432 h 1.07573 v 1.17442 1.17441 l -1.25677,0.16826 c -1.76102,0.23576 -1.91823,0.3094 -1.91823,0.89858 0,0.73304 0.25412,0.82979 2.71543,1.03385 l 2.17936,0.18069 v 1.05834 1.05833 l -3.85172,0.0729 c -2.11845,0.0401 -3.93416,-0.009 -4.0349,-0.11024 z m 10.04739,-0.007 c -0.097,-0.097 -0.17639,-2.72234 -0.17639,-5.83404 v -5.65765 l 1.52135,0.0793 1.52136,0.0794 0.13229,4.35414 0.13229,4.35414 0.66146,0.18355 c 0.3638,0.10095 1.34606,0.19541 2.18281,0.20992 l 1.52135,0.0264 v 1.19063 1.19062 h -3.66007 c -2.01304,0 -3.73944,-0.0794 -3.83645,-0.17639 z M 75.997442,106.97339 c -0.353992,-0.35399 -0.182235,-1.66262 0.453469,-3.45501 0.351454,-0.99094 0.643948,-2.27796 0.649986,-2.86004 0.006,-0.58208 0.434917,-2.308226 0.953064,-3.835872 1.95899,-5.775663 2.079545,-6.403644 2.028801,-10.568193 -0.05582,-4.580816 0.266218,-5.84503 1.93168,-7.583205 0.901518,-0.940877 1.292305,-1.16377 2.040364,-1.16377 1.381172,0 2.605016,1.561868 2.605016,3.324516 0,1.012013 0.332877,0.766027 1.187801,-0.87775 1.252461,-2.408126 3.208121,-5.203462 4.383043,-6.264933 1.3652,-1.233377 2.309568,-1.219637 2.895818,0.04213 0.21829,0.469792 0.47987,0.856745 0.5813,0.859896 0.10144,0.0031 0.97418,-0.592032 1.93942,-1.322623 2.313891,-1.751378 3.677906,-2.424888 4.708646,-2.324984 0.63935,0.06197 0.86065,0.223888 0.92497,0.67677 0.10376,0.730589 0.40309,0.745898 1.48692,0.07606 0.4621,-0.285594 1.54297,-0.702313 2.40193,-0.926042 3.82462,-0.996191 7.1823,-0.01122 6.45779,1.894395 -0.27063,0.71183 -0.1936,0.725832 1.21048,0.219994 1.23968,-0.446609 4.17586,-0.52468 4.91219,-0.130615 0.66696,0.356947 0.65221,1.262304 -0.0324,1.991077 l -0.54421,0.579284 2.33015,0.117131 c 2.57816,0.129601 3.89024,0.631974 4.36352,1.670714 0.2304,0.505683 0.19935,0.777235 -0.14986,1.310191 -0.54582,0.833022 -1.23863,0.854294 -4.66164,0.143129 -3.47873,-0.722741 -3.6392,-0.710946 -3.49712,0.257074 0.18042,1.229318 -0.74083,1.519436 -2.67085,0.841089 l -1.50495,-0.528947 v 0.635334 c 0,1.355756 -2.24625,2.013407 -4.5698,1.337934 -1.91407,-0.556435 -1.9101,-0.557638 -1.24434,0.377322 0.31454,0.44173 0.50497,0.977511 0.42319,1.190625 -0.18961,0.494136 -2.06659,0.500251 -4.33248,0.0141 -1.74268,-0.373886 -1.83783,-0.320342 -1.3466,0.757798 0.47854,1.05028 -0.0473,1.90649 -1.39356,2.268993 -0.61051,0.164396 -2.649555,0.338852 -4.531206,0.38768 -1.88165,0.04883 -3.478739,0.146334 -3.549081,0.216676 -0.07034,0.07034 0.478824,0.329414 1.220372,0.575717 2.892139,0.960615 3.757339,2.644161 2.034269,3.958408 -1.15867,0.883758 -3.612072,1.716087 -5.597214,1.898877 -3.47462,0.31994 -5.1157,1.420429 -7.589956,5.089737 -1.542437,2.287423 -2.681254,3.538143 -3.553368,3.902543 -0.787958,0.32923 -0.942694,0.59255 -1.65272,2.81249 -0.717444,2.24313 -1.195768,2.92132 -1.702794,2.41429 z m 7.792569,-16.51351 c 6.077251,-7.574468 14.995494,-12.374113 25.814299,-13.892803 1.55193,-0.21785 2.88812,-0.469141 2.96932,-0.558419 0.29817,-0.327827 -6.01164,0.197001 -8.37043,0.696222 -9.594766,2.030664 -18.080459,7.829243 -22.711233,15.519403 -1.030737,1.711706 -1.257197,2.831181 -0.314542,1.554892 0.32244,-0.436562 1.498105,-1.930246 2.612586,-3.319295 z m 91.123049,2.510845 c -0.0996,-0.530976 -0.1282,-1.018331 -0.0635,-1.083006 0.0647,-0.06468 0.19909,0.316844 0.2987,0.847823 0.0996,0.530977 0.1282,1.018331 0.0635,1.083006 -0.0647,0.06468 -0.19909,-0.316844 -0.2987,-0.847823 z"
       id="path401" />
  </g>
</svg>
